<?xml version="1.0" standalone="no"?>
<!DOCTYPE svg PUBLIC "-//W3C//DTD SVG 20010904//EN"
 "http://www.w3.org/TR/2001/REC-SVG-20010904/DTD/svg10.dtd">
<svg version="1.0" xmlns="http://www.w3.org/2000/svg"
 width="420.000000pt" height="167.000000pt" viewBox="0 0 420.000000 167.000000"
 preserveAspectRatio="xMidYMid meet">

<g transform="translate(0.000000,167.000000) scale(0.100000,-0.100000)"
fill="#000000" stroke="none">
<path d="M710 1329 c-153 -27 -251 -119 -267 -249 -14 -119 48 -187 264 -290
233 -111 273 -133 310 -167 31 -29 35 -37 30 -67 -14 -86 -88 -137 -208 -144
-192 -11 -397 82 -465 212 l-29 55 -21 -20 c-12 -11 -29 -44 -38 -74 -24 -76
-9 -121 61 -185 104 -95 321 -169 458 -156 178 16 291 126 303 296 12 167 -33
219 -298 345 -255 120 -332 193 -267 252 40 37 70 46 164 51 150 8 273 -27
349 -100 26 -25 35 -28 52 -19 37 20 68 142 44 177 -8 12 -123 57 -187 73 -61
16 -194 21 -255 10z"/>
<path d="M2804 1326 c-248 -80 -477 -607 -399 -911 20 -76 57 -123 125 -157
177 -91 476 61 630 321 121 204 164 459 97 574 -25 42 -49 60 -71 54 -5 -1 -8
-43 -7 -94 6 -279 -95 -548 -262 -699 -68 -62 -166 -108 -229 -108 -39 0 -53
5 -78 29 -42 40 -55 86 -53 190 2 201 96 420 238 561 84 82 157 117 246 118
37 1 70 4 74 7 9 10 -72 76 -124 101 -55 26 -132 32 -187 14z"/>
<path d="M2362 970 c-32 -5 -66 -18 -87 -34 l-34 -26 -48 26 c-40 23 -55 26
-88 20 -59 -11 -123 -83 -166 -188 -34 -81 -35 -83 -77 -91 -50 -10 -47 -27 5
-27 29 0 34 -3 28 -17 -3 -10 -22 -72 -41 -138 -46 -157 -108 -320 -139 -367
-33 -49 -75 -60 -137 -33 -13 5 -18 2 -18 -9 0 -42 130 -58 184 -23 18 12 27
11 61 -4 50 -23 83 -24 134 -3 74 29 125 124 215 399 31 94 60 177 65 185 5 9
23 15 47 15 35 0 39 3 39 25 0 21 -5 26 -33 28 -38 4 -38 8 10 112 28 63 63
110 80 110 4 0 8 -20 8 -44 0 -53 22 -79 40 -46 20 37 49 128 43 134 -7 7 -18
6 -91 -4z m-156 -91 c3 -5 -5 -23 -17 -40 -12 -17 -30 -52 -39 -77 -17 -45
-20 -47 -66 -54 -27 -4 -50 -5 -52 -3 -8 8 32 97 60 136 16 22 39 44 51 48 23
9 54 4 63 -10z m-96 -234 c0 -32 -124 -403 -156 -467 -40 -80 -69 -103 -120
-95 -20 4 -38 8 -41 10 -2 3 13 35 33 71 50 92 87 191 179 484 6 19 105 16
105 -3z"/>
<path d="M1780 895 c-7 -8 -15 -35 -17 -59 -10 -85 16 -123 50 -73 9 12 27 35
41 51 35 39 33 48 -13 74 -46 26 -45 26 -61 7z"/>
<path d="M3404 750 c-17 -11 -39 -38 -49 -61 -16 -36 -17 -47 -7 -98 19 -92
18 -95 -43 -120 -64 -27 -96 -65 -102 -125 -5 -38 -2 -45 23 -65 23 -18 37
-22 68 -18 74 10 115 60 124 150 4 40 8 48 28 53 33 8 31 34 -2 34 -26 0 -26
2 -22 48 6 63 28 107 53 107 17 0 20 -6 18 -37 -4 -65 36 -42 51 29 7 28 2 37
-35 77 -46 51 -60 55 -105 26z m-49 -357 c-30 -71 -95 -113 -95 -62 0 25 70
99 94 99 15 0 15 -3 1 -37z"/>
<path d="M1272 717 c-96 -156 -151 -345 -113 -390 22 -27 35 -20 85 48 51 69
165 190 172 182 3 -2 -3 -32 -12 -65 -23 -82 -14 -128 30 -149 30 -14 36 -14
70 2 43 21 48 45 9 42 -27 -2 -28 0 -26 41 2 45 47 154 83 199 19 24 19 27 4
45 -46 50 -155 -16 -266 -160 -72 -92 -60 -57 35 108 l26 46 -19 31 c-10 18
-28 36 -39 42 -17 9 -22 6 -39 -22z"/>
<path d="M3658 709 c-40 -43 -93 -155 -114 -241 -16 -63 -16 -69 0 -93 21 -32
57 -49 88 -42 13 4 41 30 62 59 l39 52 12 -34 c11 -33 64 -80 89 -80 8 0 12
25 11 78 0 72 3 83 48 177 45 92 47 100 31 112 -23 17 -69 17 -83 -1 -6 -7
-27 -46 -47 -86 -36 -75 -139 -220 -155 -220 -31 0 35 179 108 292 20 31 13
43 -29 53 -23 6 -33 1 -60 -26z"/>
<path d="M1685 664 c-30 -32 -66 -146 -72 -229 -5 -54 -3 -62 20 -84 29 -26
47 -21 47 14 0 33 56 183 86 227 31 48 30 54 -8 78 -42 25 -44 25 -73 -6z"/>
</g>
</svg>
